<?xml version="1.0" standalone="no"?>
<!DOCTYPE svg PUBLIC "-//W3C//DTD SVG 20010904//EN"
 "http://www.w3.org/TR/2001/REC-SVG-20010904/DTD/svg10.dtd">
<svg version="1.0" xmlns="http://www.w3.org/2000/svg"
 width="300.000000pt" height="300.000000pt" viewBox="0 0 300.000000 300.000000"
 preserveAspectRatio="xMidYMid meet">
<metadata>
Created by potrace 1.10, written by Peter Selinger 2001-2011
</metadata>
<g transform="translate(0.000000,300.000000) scale(0.100000,-0.100000)"
fill="#000000" stroke="none">
<path d="M34 2966 l-34 -34 0 -410 c0 -360 2 -413 16 -426 13 -13 42 -16 160
-16 196 0 234 17 234 105 0 23 -9 48 -24 68 -32 43 -38 74 -22 112 30 70 114
88 167 36 39 -39 39 -90 2 -144 -37 -54 -37 -107 0 -144 27 -28 28 -28 187
-31 210 -4 200 -14 200 183 0 80 2 145 5 145 2 0 21 -11 41 -25 126 -86 295 2
297 155 1 58 -27 115 -76 154 -35 28 -45 31 -112 31 -60 0 -79 -4 -104 -22
-16 -13 -35 -23 -41 -23 -6 0 -10 51 -10 144 0 118 -3 147 -16 160 -13 14 -66
16 -426 16 l-410 0 -34 -34z m796 -187 l0 -131 29 -29 c36 -36 95 -40 133 -9
41 32 72 40 113 29 77 -21 96 -116 35 -171 -38 -35 -85 -37 -133 -4 -49 34
-72 39 -112 26 -55 -18 -65 -49 -65 -195 l0 -125 -120 0 c-66 0 -120 3 -120 7
0 4 12 24 26 45 66 95 27 230 -81 279 -125 57 -265 -32 -265 -168 0 -52 26
-123 50 -138 27 -17 -11 -25 -116 -25 l-114 0 0 370 0 370 370 0 370 0 0 -131z"/>
<path d="M2096 2984 c-13 -13 -16 -42 -16 -160 0 -196 17 -234 105 -234 23 0
48 9 68 24 43 32 74 38 112 22 70 -30 88 -114 36 -167 -39 -39 -90 -39 -144
-2 -54 37 -107 37 -145 0 -27 -27 -27 -28 -30 -187 -4 -210 -14 -200 183 -200
80 0 145 -2 145 -5 0 -2 -11 -21 -25 -41 -86 -126 2 -295 155 -297 58 -1 115
27 154 76 28 35 31 45 31 112 0 63 -4 77 -28 111 l-27 39 155 5 c124 4 158 8
165 20 6 9 10 184 10 424 l0 408 -34 34 -34 34 -129 0 c-137 0 -153 -5 -153
-47 0 -35 29 -43 149 -43 l111 0 0 -370 0 -370 -131 0 -131 0 -29 -29 c-36
-36 -40 -95 -9 -133 32 -41 40 -72 29 -113 -21 -77 -116 -96 -171 -35 -35 38
-37 85 -4 133 34 49 39 72 26 112 -18 55 -49 65 -195 65 l-125 0 0 120 c0 66
3 120 7 120 4 0 24 -12 45 -26 95 -66 230 -27 279 81 57 125 -32 265 -168 265
-52 0 -123 -26 -138 -50 -17 -27 -25 11 -25 116 l0 114 161 0 c91 0 169 4 180
10 21 12 25 50 7 68 -9 9 -69 12 -209 12 -166 0 -200 -2 -213 -16z"/>
<path d="M1372 2568 c-7 -7 -12 -21 -12 -33 0 -30 19 -45 56 -45 34 0 64 21
64 45 0 38 -79 62 -108 33z"/>
<path d="M1602 2568 c-18 -18 -14 -56 7 -68 11 -5 41 -10 66 -10 58 0 85 14
85 43 0 36 -19 47 -85 47 -34 0 -66 -5 -73 -12z"/>
<path d="M1886 2564 c-33 -32 -6 -74 48 -74 37 0 56 15 56 45 0 12 -5 26 -12
33 -17 17 -74 15 -92 -4z"/>
<path d="M1375 2201 c-45 -19 -60 -50 -65 -133 l-5 -81 -63 -38 -63 -38 -63
34 c-68 38 -118 44 -153 20 -30 -21 -133 -206 -133 -239 0 -45 29 -82 92 -117
l58 -33 0 -76 0 -76 -61 -35 c-63 -35 -89 -68 -89 -115 0 -33 104 -218 133
-239 35 -24 85 -18 153 20 l63 34 63 -38 63 -38 5 -81 c4 -72 8 -85 33 -109
27 -28 29 -28 157 -28 128 0 130 0 157 28 25 24 29 37 33 109 l5 81 63 38 63
38 63 -34 c68 -38 118 -44 153 -20 30 21 133 206 133 239 0 45 -29 82 -92 117
l-58 33 0 76 0 76 58 33 c63 35 92 72 92 117 0 33 -103 218 -133 239 -35 24
-85 18 -153 -20 l-63 -34 -63 38 -63 38 -5 81 c-4 72 -8 85 -33 109 -26 27
-31 28 -145 30 -64 2 -126 -1 -137 -6z m233 -165 c3 -85 16 -114 60 -137 15
-7 48 -26 73 -41 62 -37 108 -37 171 3 28 16 57 29 66 27 16 -3 102 -142 102
-165 0 -6 -25 -26 -55 -43 -86 -49 -95 -66 -95 -180 0 -114 9 -131 95 -180 30
-17 55 -37 55 -43 0 -23 -86 -162 -102 -165 -9 -2 -38 11 -66 27 -63 40 -109
40 -171 3 -25 -15 -58 -34 -73 -41 -44 -23 -57 -52 -60 -137 l-3 -79 -105 0
-105 0 -3 79 c-3 85 -16 114 -60 137 -15 8 -47 26 -71 41 -60 37 -106 36 -172
-2 -28 -17 -59 -30 -68 -28 -15 3 -101 142 -101 165 0 6 25 26 55 43 86 49 95
66 95 180 0 114 -9 131 -95 180 -30 17 -55 37 -55 43 0 23 86 162 101 165 9 2
40 -11 68 -28 68 -39 112 -39 174 0 26 17 52 30 57 30 4 0 22 14 39 31 29 29
31 35 31 108 0 43 3 81 7 85 4 4 52 5 107 4 l101 -3 3 -79z"/>
<path d="M1394 1822 c-188 -67 -284 -279 -206 -455 29 -65 104 -142 171 -174
48 -24 68 -28 141 -28 73 0 93 4 141 28 67 32 142 109 172 175 31 67 31 197 0
264 -30 66 -105 143 -170 174 -72 36 -176 42 -249 16z m206 -93 c60 -27 98
-64 126 -124 78 -164 -43 -355 -226 -355 -64 0 -141 32 -182 76 -89 96 -89
252 0 348 67 72 192 96 282 55z"/>
<path d="M1430 1638 c-48 -25 -90 -89 -90 -138 0 -49 42 -113 90 -137 24 -13
56 -23 70 -23 49 0 113 42 138 90 12 24 22 56 22 70 0 49 -42 113 -90 138 -24
12 -56 22 -70 22 -14 0 -46 -10 -70 -22z m117 -90 c29 -27 29 -65 1 -95 -27
-29 -65 -29 -95 -1 -29 27 -29 65 -1 95 27 29 65 29 95 1z"/>
<path d="M432 1978 c-29 -29 -5 -108 33 -108 24 0 45 30 45 64 0 37 -15 56
-45 56 -12 0 -26 -5 -33 -12z"/>
<path d="M432 1748 c-7 -7 -12 -39 -12 -73 0 -66 11 -85 47 -85 29 0 43 27 43
85 0 25 -5 55 -10 66 -12 21 -50 25 -68 7z"/>
<path d="M2502 1628 c-29 -29 -5 -108 33 -108 24 0 45 30 45 64 0 37 -15 56
-45 56 -12 0 -26 -5 -33 -12z"/>
<path d="M436 1464 c-19 -18 -21 -75 -4 -92 7 -7 21 -12 33 -12 30 0 45 19 45
56 0 34 -21 64 -45 64 -7 0 -21 -7 -29 -16z"/>
<path d="M2502 1398 c-15 -15 -16 -112 -2 -139 12 -21 50 -25 68 -7 7 7 12 39
12 73 0 65 -11 85 -45 85 -12 0 -26 -5 -33 -12z"/>
<path d="M398 1254 c-55 -17 -114 -79 -124 -131 -11 -56 2 -121 30 -161 l26
-37 -155 -5 c-124 -4 -158 -8 -165 -20 -6 -9 -10 -184 -10 -423 l0 -409 34
-34 c33 -33 37 -34 108 -34 78 0 98 9 98 45 0 35 -20 45 -87 45 l-63 0 0 370
0 370 131 0 131 0 29 29 c36 36 40 94 9 134 -35 45 -43 80 -26 120 30 72 120
86 170 26 33 -39 34 -85 2 -132 -34 -49 -39 -72 -26 -112 18 -55 49 -65 195
-65 l125 0 0 -120 c0 -66 -3 -120 -7 -120 -4 0 -24 12 -45 26 -95 66 -230 27
-279 -81 -57 -125 32 -265 168 -265 52 0 123 26 138 50 17 27 25 -11 25 -116
l0 -114 -218 0 c-199 0 -220 -2 -235 -18 -21 -23 -21 -36 -1 -56 23 -24 505
-24 528 0 13 13 16 42 16 160 0 196 -17 234 -105 234 -23 0 -48 -9 -68 -24
-43 -32 -74 -38 -112 -22 -70 30 -88 114 -36 167 39 39 90 39 144 2 54 -37
107 -37 144 0 28 27 28 28 31 187 4 210 14 200 -183 200 -80 0 -145 2 -145 5
0 2 11 21 25 41 102 151 -41 342 -217 288z"/>
<path d="M2506 1114 c-19 -18 -21 -75 -4 -92 7 -7 21 -12 33 -12 30 0 45 19
45 56 0 34 -21 64 -45 64 -7 0 -21 -7 -29 -16z"/>
<path d="M2101 901 c-19 -19 -21 -33 -21 -166 0 -80 -2 -145 -5 -145 -2 0 -21
11 -41 25 -126 86 -295 -2 -297 -155 -1 -58 27 -115 76 -154 35 -28 45 -31
112 -31 63 0 77 4 111 28 l39 27 5 -155 c4 -124 8 -158 20 -165 9 -6 184 -10
424 -10 l408 0 34 34 34 34 0 410 c0 360 -2 413 -16 426 -13 13 -42 16 -160
16 -196 0 -234 -17 -234 -105 0 -23 9 -48 24 -68 32 -43 38 -74 22 -112 -30
-70 -114 -88 -167 -36 -39 39 -39 90 -2 144 37 54 37 107 0 144 -27 28 -28 28
-187 31 -149 3 -160 2 -179 -17z m309 -78 c0 -4 -12 -24 -26 -45 -91 -131 21
-314 182 -295 94 10 164 92 164 191 0 45 -27 117 -50 131 -27 17 11 25 116 25
l114 0 0 -370 0 -370 -370 0 -370 0 0 148 c0 102 -4 152 -12 160 -20 20 -121
15 -150 -8 -41 -32 -72 -40 -113 -29 -77 21 -96 116 -35 172 38 34 85 36 133
3 49 -34 72 -39 112 -26 55 18 65 49 65 195 l0 125 120 0 c66 0 120 -3 120 -7z"/>
<path d="M1022 498 c-15 -15 -15 -51 0 -66 29 -29 108 -5 108 33 0 38 -79 62
-108 33z"/>
<path d="M1258 499 c-21 -12 -24 -49 -6 -67 16 -16 130 -16 146 0 7 7 12 21
12 33 0 12 -5 26 -12 33 -15 15 -116 15 -140 1z"/>
<path d="M1536 494 c-33 -32 -6 -74 48 -74 37 0 56 15 56 45 0 12 -5 26 -12
33 -17 17 -74 15 -92 -4z"/>
</g>
</svg>
