<?xml version="1.0" standalone="no"?>
<!DOCTYPE svg PUBLIC "-//W3C//DTD SVG 20010904//EN"
 "http://www.w3.org/TR/2001/REC-SVG-20010904/DTD/svg10.dtd">
<svg version="1.0" xmlns="http://www.w3.org/2000/svg"
 width="300.000000pt" height="300.000000pt" viewBox="0 0 300.000000 300.000000"
 preserveAspectRatio="xMidYMid meet">
<metadata>
Created by potrace 1.10, written by Peter Selinger 2001-2011
</metadata>
<g transform="translate(0.000000,300.000000) scale(0.100000,-0.100000)"
fill="#000000" stroke="none">
<path d="M442 2786 c-208 -51 -383 -232 -427 -441 -42 -200 11 -380 155 -526
94 -96 184 -143 318 -166 85 -15 99 -15 184 0 163 28 300 116 387 246 48 73
71 128 96 236 7 27 9 24 21 -35 47 -229 240 -409 479 -448 84 -14 101 -13 181
1 130 24 221 72 314 166 87 88 122 148 150 257 37 143 24 264 -42 403 -112
234 -381 364 -640 310 -213 -45 -387 -216 -439 -433 -9 -39 -19 -64 -22 -56
-2 8 -12 44 -22 80 -50 193 -212 351 -415 405 -67 18 -206 18 -278 1z m233
-345 c23 -10 59 -39 82 -65 136 -154 30 -388 -176 -388 -223 0 -323 286 -147
423 64 50 169 63 241 30z m1160 0 c121 -54 176 -191 125 -309 -67 -155 -265
-194 -384 -76 -97 98 -94 245 7 342 63 61 172 80 252 43z"/>
<path d="M887 1608 c-170 -88 -400 -95 -573 -19 -40 18 -42 18 -72 -1 -38 -24
-89 -98 -102 -150 -7 -24 -10 -217 -8 -530 3 -478 4 -494 24 -538 25 -53 84
-114 139 -143 l40 -22 825 0 825 0 45 23 c58 30 95 66 128 122 l27 45 3 505
c2 359 0 516 -8 544 -16 54 -53 110 -93 140 l-34 26 -45 -20 c-85 -37 -159
-51 -273 -51 -123 0 -198 17 -302 70 l-62 31 -213 -1 -213 -1 -58 -30z"/>
<path d="M2793 1488 c-33 -18 -158 -89 -277 -158 l-216 -125 0 -287 0 -287
268 -155 c293 -171 319 -180 377 -134 55 43 55 45 55 585 0 482 -1 499 -20
531 -20 33 -71 62 -108 62 -11 0 -46 -15 -79 -32z"/>
</g>
</svg>
