<?xml version="1.0" standalone="no"?>
<!DOCTYPE svg PUBLIC "-//W3C//DTD SVG 20010904//EN"
 "http://www.w3.org/TR/2001/REC-SVG-20010904/DTD/svg10.dtd">
<svg version="1.0" xmlns="http://www.w3.org/2000/svg"
 width="300.000000pt" height="300.000000pt" viewBox="0 0 300.000000 300.000000"
 preserveAspectRatio="xMidYMid meet">
<metadata>
Created by potrace 1.10, written by Peter Selinger 2001-2011
</metadata>
<g transform="translate(0.000000,300.000000) scale(0.100000,-0.100000)"
fill="#000000" stroke="none">
<path d="M739 2765 c-57 -31 -59 -45 -59 -484 l0 -401 255 0 255 0 0 110 c0
167 42 255 152 316 l53 29 460 5 460 5 3 168 c3 187 -6 225 -59 252 -41 22
-1481 22 -1520 0z"/>
<path d="M1434 2156 c-67 -29 -64 -7 -64 -571 0 -456 2 -513 16 -534 34 -47
61 -51 384 -51 l301 0 211 -160 c124 -94 220 -160 233 -160 47 0 55 25 55 178
l0 141 180 3 180 3 32 33 33 32 0 515 0 515 -33 32 -32 33 -733 2 c-601 2
-738 0 -763 -11z"/>
<path d="M93 1700 c-40 -9 -60 -25 -79 -61 -22 -43 -21 -997 1 -1039 27 -53
56 -60 245 -60 l170 0 0 -144 c0 -231 6 -232 293 -16 l212 159 318 3 319 3 29
33 c28 32 29 35 29 142 l0 110 -108 0 c-101 0 -113 2 -170 31 -64 32 -110 79
-140 146 -15 33 -18 83 -22 368 l-5 330 -530 2 c-292 0 -545 -2 -562 -7z"/>
</g>
</svg>
