<?xml version="1.0" standalone="no"?>
<!DOCTYPE svg PUBLIC "-//W3C//DTD SVG 20010904//EN"
 "http://www.w3.org/TR/2001/REC-SVG-20010904/DTD/svg10.dtd">
<svg version="1.0" xmlns="http://www.w3.org/2000/svg"
 width="300.000000pt" height="300.000000pt" viewBox="0 0 300.000000 300.000000"
 preserveAspectRatio="xMidYMid meet">
<metadata>
Created by potrace 1.10, written by Peter Selinger 2001-2011
</metadata>
<g transform="translate(0.000000,300.000000) scale(0.100000,-0.100000)"
fill="#000000" stroke="none">
<path d="M815 2741 c-86 -39 -105 -82 -105 -232 l0 -109 -109 0 c-116 0 -151
-8 -190 -43 -45 -42 -61 -93 -61 -204 l0 -103 -92 0 c-109 0 -156 -11 -198
-47 -63 -53 -60 -7 -60 -864 l0 -782 25 -43 c16 -28 39 -49 68 -63 43 -21 48
-21 1046 -21 963 0 1003 1 1039 19 81 41 102 89 102 231 l0 110 110 0 c125 0
162 11 203 59 36 43 47 89 47 199 l0 92 93 0 c109 0 155 11 198 47 60 51 59
35 59 708 0 511 -2 621 -14 643 -19 36 -65 78 -99 91 -19 7 -209 11 -563 11
l-534 0 -64 128 c-101 202 -74 192 -518 192 -312 0 -347 -2 -383 -19z m755
-273 c61 -124 87 -160 134 -186 28 -15 84 -17 574 -20 l542 -3 0 -569 0 -570
-90 0 -90 0 0 398 c0 242 -4 411 -10 434 -12 41 -50 91 -84 111 -15 9 -163 13
-571 17 l-550 5 -67 130 c-91 179 -90 178 -307 185 l-166 5 -3 88 -3 87 318 0
319 0 54 -112z m-345 -375 c64 -126 74 -139 114 -160 l44 -23 539 0 538 0 0
-575 0 -575 -90 0 -90 0 0 413 c0 378 -2 415 -19 452 -10 22 -28 48 -39 58
-50 45 -69 46 -628 47 l-530 0 -59 121 c-90 185 -114 199 -337 199 l-138 0 0
90 0 90 313 0 312 0 70 -137z m-361 -350 c35 -71 72 -136 83 -145 52 -47 60
-48 623 -48 l530 0 0 -570 0 -570 -965 0 -965 0 0 730 0 730 315 0 315 0 64
-127z"/>
<path d="M1505 766 c-51 -51 -41 -162 16 -192 69 -35 129 12 129 103 0 47 -4
59 -29 84 -37 37 -82 39 -116 5z"/>
<path d="M1759 761 c-25 -25 -29 -37 -29 -84 0 -64 24 -102 69 -112 68 -15
118 46 108 132 -10 88 -89 122 -148 64z"/>
</g>
</svg>
