<?xml version="1.0" standalone="no"?>
<!DOCTYPE svg PUBLIC "-//W3C//DTD SVG 20010904//EN"
 "http://www.w3.org/TR/2001/REC-SVG-20010904/DTD/svg10.dtd">
<svg version="1.0" xmlns="http://www.w3.org/2000/svg"
 width="300.000000pt" height="300.000000pt" viewBox="0 0 300.000000 300.000000"
 preserveAspectRatio="xMidYMid meet">
<metadata>
Created by potrace 1.10, written by Peter Selinger 2001-2011
</metadata>
<g transform="translate(0.000000,300.000000) scale(0.100000,-0.100000)"
fill="#000000" stroke="none">
<path d="M540 2675 l0 -55 960 0 960 0 0 55 0 55 -960 0 -960 0 0 -55z"/>
<path d="M270 2465 l0 -55 1230 0 1230 0 0 55 0 55 -1230 0 -1230 0 0 -55z"/>
<path d="M0 1285 l0 -1015 1500 0 1500 0 0 1015 0 1015 -1500 0 -1500 0 0
-1015z m160 860 l0 -55 -55 0 -55 0 0 48 c0 27 3 52 7 55 3 4 28 7 55 7 l48 0
0 -55z m210 0 l0 -55 -50 0 -50 0 0 55 0 55 50 0 50 0 0 -55z m220 0 l0 -55
-55 0 -55 0 0 55 0 55 55 0 55 0 0 -55z m210 0 l0 -55 -50 0 -50 0 0 55 0 55
50 0 50 0 0 -55z m220 0 l0 -55 -55 0 -55 0 0 55 0 55 55 0 55 0 0 -55z m210
0 l0 -55 -50 0 -50 0 0 55 0 55 50 0 50 0 0 -55z m218 -2 l3 -53 -55 0 -56 0
0 56 0 55 53 -3 52 -3 3 -52z m212 2 l0 -55 -55 0 -55 0 0 48 c0 27 3 52 7 55
3 4 28 7 55 7 l48 0 0 -55z m210 0 l0 -55 -50 0 -50 0 0 55 0 55 50 0 50 0 0
-55z m220 0 l0 -55 -55 0 -55 0 0 55 0 55 55 0 55 0 0 -55z m210 0 l0 -55 -50
0 -50 0 0 55 0 55 50 0 50 0 0 -55z m220 0 l0 -55 -55 0 -55 0 0 55 0 55 55 0
55 0 0 -55z m210 0 l0 -55 -50 0 -50 0 0 55 0 55 50 0 50 0 0 -55z m218 -2 l3
-53 -55 0 -56 0 0 56 0 55 53 -3 52 -3 3 -52z m-1581 -350 c38 -27 205 -142
371 -258 306 -213 330 -234 305 -274 -13 -21 -742 -531 -760 -531 -7 0 -22 9
-33 20 -19 19 -20 33 -20 535 0 502 1 516 20 535 11 11 26 20 34 20 7 0 45
-21 83 -47z m-1207 -1363 l0 -50 -55 0 -55 0 0 50 0 50 55 0 55 0 0 -50z m210
0 l0 -50 -50 0 -50 0 0 50 0 50 50 0 50 0 0 -50z m220 0 l0 -50 -55 0 -55 0 0
50 0 50 55 0 55 0 0 -50z m210 0 l0 -50 -50 0 -50 0 0 50 0 50 50 0 50 0 0
-50z m220 0 l0 -50 -55 0 -55 0 0 50 0 50 55 0 55 0 0 -50z m210 0 l0 -50 -50
0 -50 0 0 50 0 50 50 0 50 0 0 -50z m220 0 l0 -50 -55 0 -55 0 0 50 0 50 55 0
55 0 0 -50z m210 0 l0 -50 -55 0 -55 0 0 50 0 50 55 0 55 0 0 -50z m210 0 l0
-50 -50 0 -50 0 0 50 0 50 50 0 50 0 0 -50z m220 0 l0 -50 -55 0 -55 0 0 50 0
50 55 0 55 0 0 -50z m210 0 l0 -50 -50 0 -50 0 0 50 0 50 50 0 50 0 0 -50z
m220 0 l0 -50 -55 0 -55 0 0 50 0 50 55 0 55 0 0 -50z m210 0 l0 -50 -50 0
-50 0 0 50 0 50 50 0 50 0 0 -50z m220 0 l0 -50 -55 0 -55 0 0 50 0 50 55 0
55 0 0 -50z"/>
<path d="M1340 1285 l0 -397 33 24 c17 13 144 102 280 198 203 141 246 175
235 186 -7 7 -98 72 -203 144 -104 73 -225 157 -267 187 l-78 54 0 -396z"/>
</g>
</svg>
