<?xml version="1.0" standalone="no"?>
<!DOCTYPE svg PUBLIC "-//W3C//DTD SVG 20010904//EN"
 "http://www.w3.org/TR/2001/REC-SVG-20010904/DTD/svg10.dtd">
<svg version="1.0" xmlns="http://www.w3.org/2000/svg"
 width="300.000000pt" height="300.000000pt" viewBox="0 0 300.000000 300.000000"
 preserveAspectRatio="xMidYMid meet">
<metadata>
Created by potrace 1.10, written by Peter Selinger 2001-2011
</metadata>
<g transform="translate(0.000000,300.000000) scale(0.100000,-0.100000)"
fill="#000000" stroke="none">
<path d="M176 2980 c-67 -26 -131 -91 -156 -158 -20 -52 -20 -79 -20 -1322 0
-1240 0 -1271 20 -1322 26 -68 90 -133 158 -158 52 -20 79 -20 1322 -20 1243
0 1270 0 1322 20 68 25 132 90 158 158 20 51 20 82 20 1322 0 1243 0 1270 -20
1322 -25 68 -90 132 -158 158 -51 20 -81 20 -1325 20 -1232 -1 -1274 -2 -1321
-20z m2645 -159 l39 -39 0 -1282 0 -1282 -39 -39 -39 -39 -1282 0 -1282 0 -39
39 -39 39 0 1282 0 1282 39 39 39 39 1282 0 1282 0 39 -39z"/>
<path d="M1526 2094 c-62 -19 -98 -46 -124 -93 -25 -43 -42 -139 -42 -233 l0
-68 -65 0 -65 0 0 -100 0 -100 65 0 65 0 0 -305 0 -305 140 0 140 0 0 305 0
305 89 0 88 0 7 63 c4 34 10 79 13 100 l6 37 -102 0 -101 0 0 89 c0 113 8 121
122 121 l78 0 0 100 0 100 -132 -1 c-88 0 -150 -5 -182 -15z"/>
</g>
</svg>
