<?xml version="1.0" standalone="no"?>
<!DOCTYPE svg PUBLIC "-//W3C//DTD SVG 20010904//EN"
 "http://www.w3.org/TR/2001/REC-SVG-20010904/DTD/svg10.dtd">
<svg version="1.0" xmlns="http://www.w3.org/2000/svg"
 width="300.000000pt" height="300.000000pt" viewBox="0 0 300.000000 300.000000"
 preserveAspectRatio="xMidYMid meet">
<metadata>
Created by potrace 1.10, written by Peter Selinger 2001-2011
</metadata>
<g transform="translate(0.000000,300.000000) scale(0.100000,-0.100000)"
fill="#000000" stroke="none">
<path d="M330 2986 c-158 -44 -274 -162 -316 -321 -11 -40 -14 -266 -14 -1165
0 -899 3 -1125 14 -1165 43 -161 160 -278 321 -321 74 -20 2256 -20 2330 0
161 43 278 160 321 321 11 40 14 266 14 1165 0 899 -3 1125 -14 1165 -43 161
-160 278 -321 321 -71 19 -2267 19 -2335 0z m2335 -185 c60 -27 101 -66 129
-123 l26 -52 0 -1126 0 -1126 -26 -52 c-28 -57 -69 -96 -129 -123 -38 -18 -98
-19 -1165 -19 -1067 0 -1127 1 -1165 19 -60 27 -101 66 -129 123 l-26 52 0
1125 c0 1068 1 1128 19 1166 27 60 66 101 123 129 l52 26 1125 0 c1068 0 1128
-1 1166 -19z"/>
<path d="M2395 2626 c-82 -36 -123 -136 -90 -221 66 -173 317 -136 333 49 4
47 0 62 -22 101 -44 75 -141 106 -221 71z"/>
<path d="M1335 2273 c-250 -53 -472 -241 -570 -480 -72 -178 -72 -408 0 -586
99 -243 322 -429 577 -481 424 -87 844 191 932 616 101 489 -280 952 -781 947
-48 0 -119 -7 -158 -16z m319 -179 c208 -51 384 -226 441 -439 21 -78 21 -232
0 -310 -44 -166 -165 -315 -320 -394 -88 -44 -166 -62 -275 -62 -109 0 -187
18 -275 62 -155 79 -276 228 -320 394 -21 78 -21 232 0 310 87 327 416 520
749 439z"/>
</g>
</svg>
