<?xml version="1.0" standalone="no"?>
<!DOCTYPE svg PUBLIC "-//W3C//DTD SVG 20010904//EN"
 "http://www.w3.org/TR/2001/REC-SVG-20010904/DTD/svg10.dtd">
<svg version="1.0" xmlns="http://www.w3.org/2000/svg"
 width="300.000000pt" height="300.000000pt" viewBox="0 0 300.000000 300.000000"
 preserveAspectRatio="xMidYMid meet">
<metadata>
Created by potrace 1.10, written by Peter Selinger 2001-2011
</metadata>
<g transform="translate(0.000000,300.000000) scale(0.100000,-0.100000)"
fill="#000000" stroke="none">
<path d="M176 2980 c-67 -26 -131 -91 -156 -158 -20 -52 -20 -79 -20 -1322 0
-1240 0 -1271 20 -1322 26 -68 90 -133 158 -158 52 -20 79 -20 1322 -20 1243
0 1270 0 1322 20 68 25 132 90 158 158 20 51 20 82 20 1322 0 1243 0 1270 -20
1322 -25 68 -90 132 -158 158 -51 20 -81 20 -1325 20 -1232 -1 -1274 -2 -1321
-20z m2645 -159 l39 -39 0 -1282 0 -1282 -39 -39 -39 -39 -1282 0 -1282 0 -39
39 -39 39 0 1282 0 1282 39 39 39 39 1282 0 1282 0 39 -39z"/>
<path d="M1019 2023 c-89 -55 -75 -198 22 -237 55 -22 102 -12 144 29 86 87
27 225 -96 225 -24 0 -56 -8 -70 -17z"/>
<path d="M952 1328 l3 -373 135 0 135 0 3 373 2 372 -140 0 -140 0 2 -372z"/>
<path d="M1362 1328 l3 -373 135 0 135 0 5 235 c3 162 9 242 18 257 32 56 101
70 149 29 l28 -24 5 -249 5 -248 133 -3 132 -3 0 249 c0 268 -8 328 -54 399
-47 75 -102 103 -198 103 -86 0 -132 -15 -179 -57 l-39 -35 0 46 0 46 -140 0
-140 0 2 -372z"/>
</g>
</svg>
